<?xml version="1.0" encoding="utf-8"?>
<svg xmlns="http://www.w3.org/2000/svg" xmlns:xlink="http://www.w3.org/1999/xlink" version= "1.1" width="139px" height="139px" viewBox="531 1490 139 139">
<g id="layer1">
<g style="fill:rgb(254,254,254); fill-opacity:1.0; stroke-linejoin: miter">
<path d="M667.0948,1558.8472L667.0948,1558.8472C667.0948,1595.7208,637.203,1625.6123,600.32965,1625.6123L600.32965,1625.6123C563.4563,1625.6123,533.5645,1595.7206,533.5645,1558.8472L533.5645,1558.8472C533.5645,1521.9736,563.4564,1492.0822,600.32965,1492.0822L600.32965,1492.0822C637.203,1492.0822,667.0948,1521.9736,667.0948,1558.8472L667.0948,1558.8472 M656.2165,1558.8472L656.2165,1558.8472C656.2165,1527.9818,631.1952,1502.9603,600.32965,1502.9603L600.32965,1502.9603C569.46423,1502.9603,544.4428,1527.9818,544.4428,1558.8472L544.4428,1558.8472C544.4428,1589.7124,569.4641,1614.7341,600.32965,1614.7341L600.32965,1614.7341C631.1952,1614.7341,656.2165,1589.7128,656.2165,1558.8472 Z"/>
</g>
<g>
<g style="fill:rgb(254,254,254); fill-opacity:1.0; stroke-linejoin: miter">
<path d="M602.26764,1523.5562Q599.2911,1523.5562,596.6164,1524.1608Q595.04913,1524.514,591.6616,1525.8271Q589.94257,1526.4836,587.26263,1528.2015Q585.13885,1529.5657,583.77344,1530.93L584.1778,1531.1324L586.55237,1534.9248Q587.15857,1536.0879,588.5235,1536.0884Q588.52386,1536.0884,588.5242,1536.0884Q589.3327,1536.0884,590.192,1535.3811Q591.40564,1534.3705,592.66974,1533.6127Q594.13617,1532.7032,596.4113,1531.9458Q598.7338,1531.139,601.7617,1531.139Q601.766,1531.139,601.77026,1531.139Q603.7418,1531.1398,606.11755,1531.8484Q607.8362,1532.3545,609.6555,1533.8212Q611.12115,1534.9845,612.0304,1536.906Q612.93964,1538.7767,612.9389,1540.8494Q612.9377,1544.0343,611.7236,1546.2582Q610.206,1548.9874,608.79,1550.4023Q607.62683,1551.5647,604.8962,1553.5858Q604.0871,1554.1921,602.77234,1555.3038Q601.4576,1556.365,601.1542,1556.6177Q599.28314,1558.1335,598.17035,1559.7002Q597.007,1561.368,597.00616,1563.643L597.006,1564.1484L597.60944,1572.7427L603.82745,1572.745L604.892,1564.8591Q605.19604,1562.9888,606.30865,1561.7759Q607.67413,1560.2599,609.5451,1558.8956Q610.0508,1558.5419,611.36554,1557.5314Q612.6803,1556.5208,613.4893,1555.965Q614.9052,1555.005,617.2822,1552.2255Q619.05237,1550.1534,620.31726,1547.2725Q621.43036,1544.6946,621.43195,1540.4482Q621.43353,1536.3029,620.0191,1533.4207Q618.50366,1530.3363,615.9768,1528.1111Q613.6521,1526.0881,609.86115,1524.7218Q606.5756,1523.5579,602.2786,1523.5562Q602.27313,1523.5562,602.26764,1523.5562 Z M600.181,1586.393Q599.019,1586.393,597.7052,1587.0493Q596.39056,1587.7059,595.73315,1588.3629Q594.67114,1589.4241,594.31696,1590.334Q593.9121,1591.3954,593.91156,1592.8109Q593.911,1594.378,594.315,1595.4398Q594.61804,1596.2488,595.7298,1597.3613Q596.8921,1598.5245,597.70087,1598.8281Q598.7623,1599.2329,600.1778,1599.2334Q600.1799,1599.2334,600.18195,1599.2334Q601.6453,1599.2334,602.7056,1598.83Q603.5146,1598.527,604.67773,1597.3646Q605.7903,1596.2529,606.09393,1595.4442Q606.4987,1594.3827,606.4993,1592.8156Q606.4998,1591.4001,606.0958,1590.3384Q605.74225,1589.4282,604.6811,1588.3662Q604.0241,1587.7089,602.70996,1587.0511Q601.3958,1586.3934,600.18256,1586.393Q600.18176,1586.393,600.181,1586.393 Z"/>
</g>
</g>
</g>
</svg>