<?xml version="1.0" encoding="utf-8"?>
<svg xmlns="http://www.w3.org/2000/svg" xmlns:xlink="http://www.w3.org/1999/xlink" version= "1.1" width="143px" height="145px" viewBox="471 1353 143 145">
<g id="layer1">
<g>
<g style="fill:rgb(0,0,0); fill-opacity:1.0; stroke-linejoin: miter">
<path d="M394.01944,785.95874L394.01944,785.95886L394.01944,785.95874L394.01944,785.95886L394.01944,785.95874L394.01944,785.95886L394.01944,785.95874L394.01944,785.95886L394.01944,785.95874L394.01944,785.95886 M390.774,801.8827L390.774,801.8828L390.774,801.8827L390.774,801.8828L390.774,801.8827L390.774,801.8828L390.774,801.8827L390.774,801.8828L390.774,801.8827 Z"/>
</g>
<g style="fill:rgb(254,254,254); fill-opacity:1.0; stroke-linejoin: miter">
<path d="M438.2059,1053.3873L438.2059,1053.3875L438.2059,1053.3873L438.2059,1053.3875L438.2059,1053.3873L438.2059,1053.3875L438.2059,1053.3873L438.2059,1053.3875L438.2059,1053.3873L438.2059,1053.3875 M434.2739,1072.68L434.2739,1072.6802L434.2739,1072.68L434.2739,1072.6802L434.2739,1072.68L434.2739,1072.6802L434.2739,1072.68L434.2739,1072.6802L434.2739,1072.68 Z"/>
</g>
<g style="fill:rgb(254,254,254); fill-opacity:1.0; stroke-linejoin: miter">
<path d="M270.0,902.67365L270.0,902.6738L270.0,902.67365L270.0,902.6738L270.0,902.67365L270.0,902.6738L270.0,902.67365L270.0,902.6738L270.0,902.67365L270.0,902.6738 M270.0,922.363L270.0,922.36316L270.0,922.363L270.0,922.36316L270.0,922.363L270.0,922.36316L270.0,922.363L270.0,922.36316L270.0,922.363 Z"/>
</g>
<g style="fill:rgb(254,254,254); fill-opacity:1.0; stroke-linejoin: miter">
<path d="M810.0,902.67365L810.0,902.6738L810.0,902.67365L810.0,902.6738L810.0,902.67365L810.0,902.6738L810.0,902.67365L810.0,902.6738L810.0,902.67365L810.0,902.6738 M810.0,922.363L810.0,922.36316L810.0,922.363L810.0,922.36316L810.0,922.363L810.0,922.36316L810.0,922.363L810.0,922.36316L810.0,922.363 Z"/>
</g>
<g style="fill:rgb(254,254,254); fill-opacity:1.0; stroke-linejoin: miter">
<path d="M270.0,902.67365L270.0,902.6738L270.0,902.67365L270.0,902.6738L270.0,902.67365L270.0,902.6738L270.0,902.67365L270.0,902.6738L270.0,902.67365L270.0,902.6738 M270.0,922.363L270.0,922.36316L270.0,922.363L270.0,922.36316L270.0,922.363L270.0,922.36316L270.0,922.363L270.0,922.36316L270.0,922.363 Z"/>
</g>
<g style="fill:rgb(254,254,254); fill-opacity:1.0; stroke-linejoin: miter">
<path d="M764.19434,902.67365L764.19434,902.6738L764.19434,902.67365L764.19434,902.6738L764.19434,902.67365L764.19434,902.6738L764.19434,902.67365L764.19434,902.6738L764.19434,902.67365L764.19434,902.6738 M764.19434,922.363L764.19434,922.36316L764.19434,922.363L764.19434,922.36316L764.19434,922.363L764.19434,922.36316L764.19434,922.363L764.19434,922.36316L764.19434,922.363 Z"/>
</g>
<g style="fill:rgb(254,254,254); fill-opacity:1.0; stroke-linejoin: miter">
<path d="M610.40076,1426.165L610.40076,1426.1652C610.40076,1463.652,580.0117,1494.041,542.5248,1494.041L542.5248,1494.0411C505.03793,1494.041,474.6488,1463.652,474.6488,1426.165L474.6488,1426.1652C474.6488,1388.6781,505.03793,1358.2891,542.5248,1358.2891L542.5248,1358.2892C580.0117,1358.2891,610.40076,1388.6781,610.40076,1426.165L610.40076,1426.1652 M597.74963,1426.165L597.74963,1426.1652C597.74963,1395.6652,573.02466,1370.9402,542.5248,1370.9402L542.5248,1370.9404C512.02496,1370.9402,487.3,1395.6652,487.3,1426.165L487.3,1426.1652C487.3,1456.6649,512.02496,1481.3899,542.5248,1481.3899L542.5248,1481.39C573.02466,1481.3899,597.74963,1456.6649,597.74963,1426.165 Z"/>
</g>
<g style="fill:rgb(254,254,254); fill-opacity:1.0; stroke-linejoin: miter">
<path d="M389.99152,1337.3877L389.99152,1337.3878L389.99152,1337.3877L389.99152,1337.3878L389.99152,1337.3877L389.99152,1337.3878L389.99152,1337.3877L389.99152,1337.3878L389.99152,1337.3877L389.99152,1337.3878 M391.07745,1339.03L391.07745,1339.0303L391.07745,1339.03L391.07745,1339.0303L391.07745,1339.03L391.07745,1339.0303L391.07745,1339.03L391.07745,1339.0303L391.07745,1339.03 Z"/>
</g>
<g style="fill:rgb(254,254,254); fill-opacity:1.0; stroke-linejoin: miter">
<path d="M607.99585,1426.165L607.99585,1426.1652C607.99585,1462.3236,578.6835,1491.636,542.5248,1491.636L542.5248,1491.6362C506.36615,1491.636,477.05377,1462.3237,477.05377,1426.165L477.05377,1426.1652C477.05377,1390.0063,506.36615,1360.694,542.5248,1360.694L542.5248,1360.6941C578.68353,1360.694,607.99585,1390.0063,607.99585,1426.165L607.99585,1426.1652 M600.15454,1426.165L600.15454,1426.1652C600.15454,1394.337,574.35284,1368.5353,542.5248,1368.5353L542.5248,1368.5354C510.69678,1368.5353,484.89502,1394.337,484.89502,1426.165L484.89502,1426.1652C484.89502,1457.993,510.69675,1483.7948,542.5248,1483.7948L542.5248,1483.7949C574.3529,1483.7948,600.15454,1457.993,600.15454,1426.165 Z"/>
</g>
<g style="fill:rgb(254,254,254); fill-opacity:1.0; stroke-linejoin: miter">
<path d="M390.02435,1337.367L390.02435,1337.3671L390.02435,1337.367L390.02435,1337.3671L390.02435,1337.367L390.02435,1337.3671L390.02435,1337.367L390.02435,1337.3671L390.02435,1337.367L390.02435,1337.3671 M391.04462,1339.0509L391.04462,1339.051L391.04462,1339.0509L391.04462,1339.051L391.04462,1339.0509L391.04462,1339.051L391.04462,1339.0509L391.04462,1339.051L391.04462,1339.0509 Z"/>
</g>
<g style="fill:rgb(254,254,254); fill-opacity:1.0; stroke-linejoin: miter">
<path d="M357.8871,1305.249L357.8871,1305.2493L357.8871,1305.249L357.8871,1305.2493L357.8871,1305.249L357.8871,1305.2493L357.8871,1305.249L357.8871,1305.2493L357.8871,1305.249L357.8871,1305.2493 M358.90735,1306.933L358.90735,1306.9332L358.90735,1306.933L358.90735,1306.9332L358.90735,1306.933L358.90735,1306.9332L358.90735,1306.933L358.90735,1306.9332L358.90735,1306.933 Z"/>
</g>
<g style="fill:rgb(254,254,254); fill-opacity:1.0; stroke-linejoin: miter">
<path d="M357.86877,1305.2604L357.86877,1305.2606L357.86877,1305.2604L357.86877,1305.2606L357.86877,1305.2604L357.86877,1305.2606L357.86877,1305.2604L357.86877,1305.2606L357.86877,1305.2604L357.86877,1305.2606 M358.92563,1306.9216L358.92563,1306.9219L358.92563,1306.9216L358.92563,1306.9219L358.92563,1306.9216L358.92563,1306.9219L358.92563,1306.9216L358.92563,1306.9219L358.92563,1306.9216 Z"/>
</g>
<g style="fill:rgb(254,254,254); fill-opacity:1.0; stroke-linejoin: miter">
<path d="M540.43945,1387.2003L539.6328,1408.7485Q538.59393,1436.5018,539.7704,1441.2909Q540.2627,1443.2299,542.6856,1444.9023Q545.1127,1446.4618,547.14343,1446.5378Q547.2022,1446.54,547.26044,1446.54Q549.2129,1446.54,550.51227,1444.0656Q549.76416,1433.8696,549.8456,1428.6757Q549.854,1407.3235,549.7961,1405.8528Q548.90076,1387.5171,544.1624,1387.3396L540.43945,1387.2003 Z M542.58905,1456.5352Q541.31006,1457.504,540.0268,1458.5859Q538.8564,1459.6718,538.7973,1461.2512Q538.69415,1464.0068,539.8804,1464.0068Q539.90826,1464.0068,539.9369,1464.0052Q541.72516,1464.5242,543.75586,1464.6002Q543.922,1464.6064,544.12665,1464.6064Q545.0338,1464.6064,546.6976,1464.4844Q548.27686,1464.3583,549.168,1464.3583Q549.3639,1464.3583,549.5265,1464.3644Q550.15814,1462.5803,550.2257,1460.7751Q550.25104,1460.0983,550.0761,1458.7361Q549.8969,1457.4867,549.92224,1456.8097L542.58905,1456.5352 Z"/>
</g>
<g style="fill:rgb(254,254,254); fill-opacity:1.0; stroke-linejoin: miter">
<path d="M430.47263,1396.7949L430.47263,1396.795L430.47263,1396.7949L430.47263,1396.795L430.47263,1396.7949L430.47263,1396.795L430.47263,1396.7949L430.47263,1396.795L430.47263,1396.7949L430.47263,1396.795 M431.7115,1398.3252L431.7115,1398.3253L431.7115,1398.3252L431.7115,1398.3253L431.7115,1398.3252L431.7115,1398.3253L431.7115,1398.3252L431.7115,1398.3253L431.7115,1398.3252 Z"/>
</g>
</g>
</g>
</svg>